<?xml version="1.0" encoding="UTF-8"?>
<svg xmlns="http://www.w3.org/2000/svg" version="1.1" viewBox="0 0 32 32">
  <defs>
    <style>
      .cls-1 {
        font-family: ArialMT, Arial;
        font-size: 4.8px;
      }

      .cls-1, .cls-2 {
        fill: #50af95;
      }

      .cls-3, .cls-4 {
        fill: #fff;
      }

      .cls-3, .cls-2 {
        fill-rule: evenodd;
      }

      .cls-4 {
        stroke-width: .1px;
      }

      .cls-4, .cls-5 {
        stroke: #50af95;
        stroke-miterlimit: 10;
      }

      .cls-5 {
        fill: none;
        stroke-width: 0px;
      }
    </style>
  </defs>
  <!-- Generator: Adobe Illustrator 28.7.1, SVG Export Plug-In . SVG Version: 1.2.0 Build 142)  -->
  <g>
    <g id="Layer_2">
      <path class="cls-2" d="M5.8,2.2L0,14.5c0,0,0,.2,0,.3l15.8,15.1c0,0,.2,0,.3,0l15.8-15.1c0,0,0-.2,0-.3l-5.8-12.3c0,0-.1-.1-.2-.1H6.1c0,0-.2,0-.2.1h0Z"/>
      <path class="cls-3" d="M18,15.8h0c-.1,0-.7,0-2,0s-1.8,0-2,0h0c-4-.2-7-.9-7-1.7s3-1.5,7-1.7v2.7c.3,0,1,0,2.1,0s1.9,0,2,0v-2.7c4,.2,7,.9,7,1.7s-3,1.5-7,1.7h0ZM18,12.1v-2.4h5.4c.1,0,.2,0,.2-.2v-3.3c0-.1,0-.2-.2-.2h-14.8c-.1,0-.2,0-.2.2v3.3c0,.1,0,.2.2.2h5.4v2.4c-4.5.2-8,1.1-8,2.2s3.4,2,8,2.2v7.8h4v-7.8c4.5-.2,7.9-1.1,7.9-2.2s-3.4-2-7.9-2.2h0ZM18,12.1h0Z"/>
      <circle class="cls-4" cx="25.1" cy="21.6" r="3.3"/>
      <circle class="cls-5" cx="25.1" cy="21.6" r="2.9"/>
      <text class="cls-1" transform="translate(23.5 23)"><tspan x="0" y="0">Ȿ</tspan></text>
    </g>
  </g>
</svg>